<?xml version="1.0" standalone="no"?><svg xmlns="http://www.w3.org/2000/svg" viewBox="0 0 1440 320"><path fill="#3498db" fill-opacity="1" d="M0,32L26.7,64C53.3,96,107,160,160,197.3C213.3,235,267,245,320,234.7C373.3,224,427,192,480,170.7C533.3,149,587,139,640,154.7C693.3,171,747,213,800,208C853.3,203,907,149,960,117.3C1013.3,85,1067,75,1120,96C1173.3,117,1227,171,1280,192C1333.3,213,1387,203,1413,197.3L1440,192L1440,320L1413.3,320C1386.7,320,1333,320,1280,320C1226.7,320,1173,320,1120,320C1066.7,320,1013,320,960,320C906.7,320,853,320,800,320C746.7,320,693,320,640,320C586.7,320,533,320,480,320C426.7,320,373,320,320,320C266.7,320,213,320,160,320C106.7,320,53,320,27,320L0,320Z"></path></svg>