<?xml version="1.0" standalone="no"?><svg xmlns="http://www.w3.org/2000/svg" viewBox="0 0 1440 320"><path fill="#3498db" fill-opacity="1" d="M0,32L26.7,64C53.3,96,107,160,160,197.3C213.3,235,267,245,320,234.7C373.3,224,427,192,480,170.7C533.3,149,587,139,640,154.7C693.3,171,747,213,800,208C853.3,203,907,149,960,117.3C1013.3,85,1067,75,1120,96C1173.3,117,1227,171,1280,192C1333.3,213,1387,203,1413,197.3L1440,192L1440,0L1413.3,0C1386.7,0,1333,0,1280,0C1226.7,0,1173,0,1120,0C1066.7,0,1013,0,960,0C906.7,0,853,0,800,0C746.7,0,693,0,640,0C586.7,0,533,0,480,0C426.7,0,373,0,320,0C266.7,0,213,0,160,0C106.7,0,53,0,27,0L0,0Z"></path></svg>